<?xml version="1.0" encoding="UTF-8"?>
<svg xmlns="http://www.w3.org/2000/svg" id="Layer_1" data-name="Layer 1" viewBox="0 0 64 64" width="512" height="512"><path d="M30,19H16a1,1,0,0,0-1,1V33H14a1,1,0,0,0-1,1V48a1,1,0,0,0,1,1H42a1,1,0,0,0,1-1V34a1,1,0,0,0-1-1H31V20A1,1,0,0,0,30,19Zm-8,2h2v3H22Zm5,26H15V35h3v4a1,1,0,0,0,1,1h4a1,1,0,0,0,1-1V35h3Zm-7-9V35h2v3Zm-3-5V21h3v4a1,1,0,0,0,1,1h4a1,1,0,0,0,1-1V21h3V33Zm17,2h2v3H34Zm-2,0v4a1,1,0,0,0,1,1h4a1,1,0,0,0,1-1V35h3V47H29V35Z"/><path d="M45.831,26.328v-.223a6.927,6.927,0,0,0,1.243-.693l.261.144a1.714,1.714,0,0,0,2.3-.606l1.126-1.866a1.635,1.635,0,0,0,.183-1.278,1.689,1.689,0,0,0-.812-1.033l-.216-.119a6.307,6.307,0,0,0,0-1.308l.216-.119a1.689,1.689,0,0,0,.812-1.033,1.636,1.636,0,0,0-.182-1.277l-1.128-1.868a1.711,1.711,0,0,0-2.3-.6l-.26.143a7,7,0,0,0-1.243-.693v-.223A1.69,1.69,0,0,0,44.128,12H41.872a1.69,1.69,0,0,0-1.7,1.672V13.9a6.927,6.927,0,0,0-1.243.693l-.261-.144a1.712,1.712,0,0,0-2.3.606l-1.126,1.866a1.635,1.635,0,0,0-.183,1.278,1.689,1.689,0,0,0,.812,1.033l.216.119a6.307,6.307,0,0,0,0,1.308l-.216.119a1.689,1.689,0,0,0-.812,1.033,1.636,1.636,0,0,0,.182,1.277l1.128,1.868a1.711,1.711,0,0,0,2.3.6l.26-.143a7,7,0,0,0,1.243.693v.223A1.69,1.69,0,0,0,41.872,28h2.256A1.69,1.69,0,0,0,45.831,26.328Zm-2-.328H42.169v-.123a1.688,1.688,0,0,0-1.086-1.557,4.971,4.971,0,0,1-1.1-.611,1.756,1.756,0,0,0-1.873-.132l-.178.1-.8-1.319.1-.058a1.658,1.658,0,0,0,.855-1.672A4.188,4.188,0,0,1,38.05,20a4.3,4.3,0,0,1,.045-.626,1.655,1.655,0,0,0-.853-1.672l-.1-.059.8-1.319.178.1a1.753,1.753,0,0,0,1.876-.134,4.956,4.956,0,0,1,1.1-.609,1.688,1.688,0,0,0,1.086-1.557V14h1.662v.123a1.688,1.688,0,0,0,1.086,1.557,4.971,4.971,0,0,1,1.1.611,1.758,1.758,0,0,0,1.873.132l.178-.1.8,1.319-.1.058a1.658,1.658,0,0,0-.855,1.672A4.188,4.188,0,0,1,47.95,20a4.3,4.3,0,0,1-.045.626,1.655,1.655,0,0,0,.853,1.672l.1.059-.8,1.319-.178-.1a1.758,1.758,0,0,0-1.876.134,4.956,4.956,0,0,1-1.1.609,1.688,1.688,0,0,0-1.086,1.557Z"/><path d="M46.5,20A3.5,3.5,0,1,0,43,23.5,3.5,3.5,0,0,0,46.5,20ZM43,21.5A1.5,1.5,0,1,1,44.5,20,1.5,1.5,0,0,1,43,21.5Z"/><path d="M32,63a31,31,0,0,0,15.5-4.144l-1-1.731a29.168,29.168,0,1,1,9.286-8.568l-2.348-1.8a1,1,0,0,0-1.6.659L50.752,55.4a1,1,0,0,0,.991,1.135.985.985,0,0,0,.387-.079l7.433-3.121a1,1,0,0,0,.222-1.715l-2.412-1.85A30.71,30.71,0,0,0,63,32,31,31,0,1,0,32,63Zm20.97-9.061.617-4.547,3.614,2.77Z"/></svg>
