<svg width="97" height="20" viewBox="0 0 97 20" fill="none" xmlns="http://www.w3.org/2000/svg">
<path d="M18.0124 5.71429C17.2671 2.36025 15.1553 0 11.1801 0H11.0559H10.9317C6.58385 0 3.22982 2.23603 1.49068 5.71429C0.496894 7.45342 0 9.56522 0 11.8012C0 16.149 2.36025 18.8819 5.46583 19.6274C6.08696 19.7515 6.70807 19.8758 7.32919 19.8758C8.07453 19.8758 8.69565 19.7515 9.31676 19.6274C10.559 19.2547 11.5528 18.6335 12.4224 17.764V19.6274C12.4224 19.7515 12.5466 19.7515 12.5466 19.7515H15.2794L15.4038 19.6274L17.2671 10.1863C17.2671 10.0621 17.1429 9.93789 17.0186 9.93789H10.3106C10.1863 9.93789 10.1863 10.0621 10.0621 10.0621L9.56522 12.5466V12.6708C9.56522 12.795 9.68944 12.795 9.68944 12.795H13.0435C12.2981 14.7826 10.6832 16.5218 7.95031 16.5218C5.21739 16.5218 3.60249 14.5342 3.60249 11.3043C3.60249 9.19254 4.34782 7.08075 5.46583 5.71429C6.58385 4.34783 8.32299 3.35404 10.3106 3.35404C12.1739 3.35404 13.2919 4.2236 14.0372 5.71429C14.1615 6.08696 14.41 6.45963 14.5342 6.95653C14.5342 7.08075 14.6583 7.08075 14.6583 7.08075L17.8882 6.21118L18.0124 6.08696V5.71429ZM25.3417 0.248447C25.3417 0.124223 25.2174 0 25.0932 0H21.9876C21.8633 0 21.8633 0.124223 21.7392 0.124223L18.0124 19.3789V19.5031C18.0124 19.6274 18.1367 19.6274 18.1367 19.6274H21.3665L21.4907 19.5031L25.3417 0.248447ZM34.5342 15.4038C33.7888 16.3975 32.795 16.8944 31.4286 16.8944C29.8136 16.8944 28.6957 15.5279 28.6957 13.4162C28.6957 11.9255 29.0683 10.8075 29.6894 9.81367C30.4347 8.81988 31.4286 8.32299 32.795 8.32299C34.41 8.32299 35.5279 9.68945 35.5279 11.8012C35.5279 13.4162 35.1553 14.5342 34.5342 15.4038ZM34.9068 5.71429C34.2857 5.59007 33.7888 5.46583 33.0435 5.46583C32.2982 5.46583 31.5528 5.59007 30.8075 5.71429C29.5653 5.96274 28.4472 6.58385 27.3292 7.70186C25.7143 9.31676 24.9689 11.3043 24.9689 14.0372C24.9689 16.7701 26.5839 19.0063 29.1925 19.7515C29.8136 19.7515 30.4347 19.8758 31.0558 19.8758C31.8013 19.8758 32.5465 19.7515 33.2919 19.6274C34.5342 19.3789 35.6522 18.7578 36.7701 17.6397C38.3851 16.0249 39.1304 14.0372 39.1304 11.3043C39.2547 8.57143 37.6397 6.3354 34.9068 5.71429ZM50.6832 7.70186C50.1864 6.83229 49.1925 6.08696 47.9503 5.71429C47.4535 5.59007 46.9565 5.46583 46.4596 5.46583C45.8385 5.46583 45.2174 5.59007 44.7206 5.71429C42.7329 6.21118 41.6149 7.70186 41.6149 9.81367C41.6149 11.677 42.8571 12.795 44.4721 13.5404C46.0869 14.2857 46.8324 14.7826 46.8324 15.6522C46.8324 16.646 45.9628 17.1429 45.0932 17.1429C43.7267 17.1429 42.8571 16.3975 42.4844 14.9068C42.4844 14.7826 42.3603 14.7826 42.236 14.7826H42.1118L39.5031 15.9006C39.3789 15.9006 39.3789 16.0249 39.3789 16.0249C39.7515 17.3913 40.8696 19.1304 42.9814 19.7515C43.4782 19.8758 43.9751 20 44.5963 20C45.3417 20 45.9628 19.8758 46.5839 19.7515C48.6957 19.2547 50.0621 17.764 50.0621 15.1553C50.0621 13.1677 48.5714 12.2981 47.205 11.5528C46.2111 11.0559 44.8447 10.6832 44.8447 9.68944C44.8447 8.9441 45.4658 8.44721 46.2111 8.44721C46.9565 8.44721 47.7018 8.81988 48.1988 9.441L48.3229 9.56522H48.4472L50.559 8.07453C50.6832 7.82608 50.6832 7.82608 50.6832 7.70186ZM59.3789 5.71429C58.8819 5.59007 58.3851 5.46583 57.8882 5.46583C57.2671 5.46583 56.646 5.59007 56.149 5.71429C54.1615 6.21118 53.0435 7.70186 53.0435 9.81367C53.0435 11.677 54.2857 12.795 55.9006 13.5404C57.5156 14.2857 58.2608 14.7826 58.2608 15.6522C58.2608 16.646 57.3913 17.1429 56.5217 17.1429C55.1553 17.1429 54.2857 16.2733 53.9131 14.9068C53.9131 14.7826 53.7888 14.7826 53.7888 14.7826H53.6646L50.9317 15.6522C50.8075 15.6522 50.8075 15.7764 50.8075 15.7764C51.1801 17.1429 52.2982 18.8819 54.4099 19.5031C54.9068 19.6274 55.4038 19.7515 56.0249 19.7515C56.7701 19.7515 57.3913 19.6274 58.0124 19.5031C60.1242 19.0063 61.4907 17.5156 61.4907 14.9068C61.4907 12.9193 60 12.0497 58.6335 11.3043C57.6397 10.8075 56.2733 10.4348 56.2733 9.441C56.2733 8.69565 56.8944 8.19876 57.6397 8.19876C58.3851 8.19876 59.1304 8.57143 59.6274 9.19254L59.7515 9.31676H59.8758L62.1118 7.70186L62.236 7.57764V7.45342C61.6149 6.70807 60.6211 5.96274 59.3789 5.71429ZM68.3229 5.71429H65.2174C65.0932 5.71429 65.0932 5.71429 64.9689 5.83851L62.3603 19.3789V19.5031C62.3603 19.6274 62.4844 19.6274 62.4844 19.6274H65.7143L65.8385 19.5031L68.4472 5.83851C68.5714 5.71429 68.4472 5.71429 68.3229 5.71429ZM73.1676 11.0559C73.7888 9.56522 75.1553 8.44721 76.8945 8.44721C78.6335 8.44721 79.5031 9.31676 79.5031 11.0559H73.1676ZM79.1304 5.71429C78.6335 5.59007 78.0124 5.46583 77.3913 5.46583C76.646 5.46583 76.0249 5.59007 75.4038 5.71429C71.5528 6.58385 69.0683 10.0621 69.0683 13.7888C69.0683 17.0186 70.8075 19.1304 73.292 19.7515C73.7888 19.8758 74.41 20 75.0311 20C75.7764 20 76.5217 19.8758 77.1429 19.7515C79.1304 19.2547 80.497 18.1367 81.8633 16.2733V16.149C81.8633 16.0249 81.8633 16.0249 81.7392 16.0249L79.3789 14.7826H79.2546C79.1304 14.7826 79.1304 14.7826 79.1304 14.9068C78.1367 16.3975 77.0186 17.1429 75.4038 17.1429C73.5404 17.1429 72.5465 15.9006 72.5465 14.41V13.9131H82.6088L82.7329 13.7888C82.8571 13.4162 83.1056 12.4224 83.1056 11.1801C82.9814 8.44721 81.6149 6.3354 79.1304 5.71429ZM94.1615 8.81988H94.4099C94.4099 8.81988 94.5342 8.81988 94.5342 8.69565L95.5279 5.96274V5.83851C95.5279 5.71429 95.5279 5.71429 95.4038 5.71429C95.2794 5.71429 95.2794 5.71429 95.1553 5.59006C94.7826 5.46583 94.41 5.34161 93.6646 5.34161C93.1676 5.34161 92.6708 5.46583 92.1739 5.59006C91.1801 5.96274 90.1864 6.58385 89.3168 7.70186L89.6894 5.83851C89.6894 5.71429 89.5653 5.59006 89.441 5.59006H86.3354C86.2111 5.59006 86.2111 5.71429 86.0869 5.71429L83.4782 19.2547V19.3789C83.4782 19.5031 83.6025 19.5031 83.6025 19.5031H86.8324L86.9565 19.3789L87.9503 14.5342C88.8199 10.1863 91.1801 8.32299 92.9193 8.32299C93.4161 8.57143 93.7888 8.57143 94.1615 8.81988ZM67.4535 0.248447C66.3354 0.248447 65.4658 1.11801 65.4658 2.23603C65.4658 3.35404 66.3354 4.2236 67.4535 4.2236C68.5714 4.2236 69.441 3.35404 69.441 2.23603C69.441 1.11801 68.5714 0.248447 67.4535 0.248447ZM94.2857 15.9006C93.1676 15.9006 92.2982 16.7701 92.2982 17.8882C92.2982 18.6335 92.6708 19.2547 93.292 19.6274C93.5404 19.7515 93.9131 19.8758 94.2857 19.8758C94.6583 19.8758 95.0311 19.7515 95.2795 19.6274C95.9006 19.2547 96.2733 18.6335 96.2733 17.8882C96.2733 16.7701 95.4038 15.9006 94.2857 15.9006Z" fill="white"/>
</svg>
